# xmcd
#
# Track frame offsets: 
#        150
#        36607
#        55366
#        68974
#        90675
#        108520
#        119821
#        136702
#        150668
#        170892
#        185003
#        201614
#        218534
#        232907
#        257659
#
# Disc length: 3842 seconds
#
# Revision: 2
# Processed by: cddbd v1.5.2PL0 Copyright (c) Steve Scherf et al.
# Submitted via: ExactAudioCopy v1.0b1
#
DISCID=e70f000f
DTITLE=Christian Willisohn and Boris van der Lek - back the limelight
DYEAR=2010
DGENRE=
TTITLE0=Drown in my own tears
TTITLE1=Take a giant step
TTITLE2=Choo choo train
TTITLE3=Makin´ whoopee
TTITLE4=I can´t sleep
TTITLE5=Amy´s walk
TTITLE6=Farewall
TTITLE7=I´ve dreamed I had a dream
TTITLE8=Tom Traubert´s blues
TTITLE9=Suzie´s q
TTITLE10=Tell me how do you feel
TTITLE11=Come back
TTITLE12=Fashion
TTITLE13=Battle hymn of the republic
TTITLE14=God bless the child
EXTD=
EXTT0=
EXTT1=
EXTT2=
EXTT3=
EXTT4=
EXTT5=
EXTT6=
EXTT7=
EXTT8=
EXTT9=
EXTT10=
EXTT11=
EXTT12=
EXTT13=
EXTT14=
PLAYORDER=
